<svg width="24" height="19" viewBox="0 0 24 19" fill="none" xmlns="http://www.w3.org/2000/svg">
<path d="M1 13.7308H23M1 12.8846H23M4.38462 6.96155H11.1538M4.38462 4.42309H7.76923M3.53846 1.03847H20.4615C21.1348 1.03847 21.7804 1.30592 22.2565 1.78197C22.7326 2.25802 23 2.90369 23 3.57693V15.4231C23 16.0963 22.7326 16.742 22.2565 17.218C21.7804 17.6941 21.1348 17.9615 20.4615 17.9615H3.53846C2.86522 17.9615 2.21955 17.6941 1.7435 17.218C1.26744 16.742 1 16.0963 1 15.4231V3.57693C1 2.90369 1.26744 2.25802 1.7435 1.78197C2.21955 1.30592 2.86522 1.03847 3.53846 1.03847Z" stroke="#C59FDF" stroke-width="1.69231" stroke-linecap="round" stroke-linejoin="round"/>
</svg>
