<svg width="24" height="24" viewBox="0 0 24 24" fill="none" xmlns="http://www.w3.org/2000/svg">
<path d="M12 4.66667V19.3333M8.33333 15.8891L9.40767 16.6946C10.8389 17.7689 13.1599 17.7689 14.5923 16.6946C16.0248 15.6202 16.0248 13.8798 14.5923 12.8054C13.8773 12.2677 12.9387 12 12 12C11.1139 12 10.2278 11.7311 9.55189 11.1946C8.20011 10.1202 8.20011 8.37978 9.55189 7.30544C10.9037 6.23111 13.0963 6.23111 14.4481 7.30544L14.9553 7.70878M23 12C23 13.4445 22.7155 14.8749 22.1627 16.2095C21.6099 17.5441 20.7996 18.7567 19.7782 19.7782C18.7567 20.7996 17.5441 21.6099 16.2095 22.1627C14.8749 22.7155 13.4445 23 12 23C10.5555 23 9.12506 22.7155 7.79048 22.1627C6.4559 21.6099 5.24327 20.7996 4.22183 19.7782C3.20038 18.7567 2.39013 17.5441 1.83733 16.2095C1.28452 14.8749 1 13.4445 1 12C1 9.08262 2.15893 6.28473 4.22183 4.22183C6.28473 2.15893 9.08262 1 12 1C14.9174 1 17.7153 2.15893 19.7782 4.22183C21.8411 6.28473 23 9.08262 23 12Z" stroke="#BA8DD9" stroke-width="1.83333" stroke-linecap="round" stroke-linejoin="round"/>
</svg>
