<svg width="281" height="39" viewBox="0 0 281 39" fill="none" xmlns="http://www.w3.org/2000/svg">
<g clip-path="url(#clip0_734_10991)">
<circle cx="19.6647" cy="19.6847" r="18.5236" stroke="url(#paint0_linear_734_10991)"/>
<path d="M19.0211 9.0288C19.0027 9.01741 18.981 9.0132 18.9598 9.01697C18.9386 9.02074 18.9196 9.03222 18.9062 9.04925C18.8928 9.06628 18.886 9.08768 18.8872 9.10942C18.8883 9.13116 18.8972 9.15174 18.9122 9.16729C19.2773 9.55629 19.5549 10.0208 19.726 10.5289C19.8971 11.0371 19.9576 11.5767 19.9033 12.1108C19.6463 14.1999 16.5526 14.113 16.8096 17.3358C17.0111 19.8427 18.7872 21.8238 19.5652 22.5796C19.59 22.6029 19.6071 22.6334 19.6143 22.6669C19.6214 22.7004 19.6181 22.7353 19.605 22.7668C19.5918 22.7984 19.5694 22.8251 19.5407 22.8432C19.512 22.8614 19.4786 22.8702 19.4448 22.8684C18.3356 22.8167 15.7514 22.9411 16.2955 25.3494C16.8652 27.8845 19.813 29.8093 20.7902 30.3961C20.8072 30.4069 20.8273 30.4115 20.8473 30.4091C20.8672 30.4068 20.8858 30.3975 20.8998 30.383C20.9139 30.3685 20.9226 30.3495 20.9246 30.3293C20.9265 30.309 20.9216 30.2887 20.9106 30.2717C20.3989 29.4501 19.1044 27.1756 19.7319 26.0466C20.2761 25.0654 21.8832 24.8189 22.7886 24.7579C22.8411 24.7552 22.8917 24.737 22.9341 24.7054C22.9764 24.6739 23.0087 24.6304 23.027 24.5805C23.0452 24.5305 23.0486 24.4762 23.0367 24.4243C23.0248 24.3724 22.9981 24.3251 22.9599 24.2885C22.0615 23.3707 20.1812 21.1361 20.246 18.5494C20.3317 15.235 27.1628 13.5778 19.0211 9.0288Z" fill="url(#paint1_linear_734_10991)"/>
<path d="M47.7425 14.7982V13.5482H56.4697V14.7982H52.8106V25.1846H51.4015V14.7982H47.7425ZM60.8561 25.3664C60.0152 25.3664 59.2898 25.1808 58.68 24.8096C58.0739 24.4346 57.6061 23.9118 57.2765 23.2414C56.9508 22.5671 56.7879 21.7831 56.7879 20.8891C56.7879 19.9952 56.9508 19.2073 57.2765 18.5255C57.6061 17.8399 58.0644 17.3058 58.6515 16.9232C59.2425 16.5368 59.9318 16.3437 60.7197 16.3437C61.1743 16.3437 61.6231 16.4194 62.0663 16.5709C62.5095 16.7224 62.9129 16.9687 63.2765 17.3096C63.6402 17.6467 63.93 18.0937 64.1459 18.6505C64.3618 19.2073 64.4697 19.8929 64.4697 20.7073V21.2755H57.7425V20.1164H63.1061C63.1061 19.624 63.0076 19.1846 62.8106 18.7982C62.6175 18.4118 62.3409 18.1069 61.9811 17.8834C61.625 17.6599 61.2046 17.5482 60.7197 17.5482C60.1856 17.5482 59.7235 17.6808 59.3334 17.9459C58.947 18.2073 58.6497 18.5482 58.4413 18.9687C58.233 19.3891 58.1288 19.8399 58.1288 20.3209V21.0937C58.1288 21.7528 58.2425 22.3115 58.4697 22.7698C58.7008 23.2243 59.0209 23.5709 59.43 23.8096C59.839 24.0444 60.3144 24.1618 60.8561 24.1618C61.2084 24.1618 61.5265 24.1126 61.8106 24.0141C62.0985 23.9118 62.3466 23.7603 62.555 23.5596C62.7633 23.355 62.9243 23.1012 63.0379 22.7982L64.3334 23.1618C64.197 23.6012 63.9678 23.9876 63.6459 24.3209C63.3239 24.6505 62.9262 24.9081 62.4527 25.0937C61.9792 25.2755 61.447 25.3664 60.8561 25.3664ZM66.5095 25.1846V16.4573H67.805V17.8209H67.9186C68.1004 17.355 68.394 16.9933 68.7993 16.7357C69.2046 16.4743 69.6913 16.3437 70.2595 16.3437C70.8353 16.3437 71.3144 16.4743 71.697 16.7357C72.0834 16.9933 72.3845 17.355 72.6004 17.8209H72.6913C72.9148 17.3702 73.25 17.0122 73.697 16.7471C74.144 16.4781 74.68 16.3437 75.305 16.3437C76.0853 16.3437 76.7235 16.588 77.2197 17.0766C77.7159 17.5615 77.964 18.3171 77.964 19.3437V25.1846H76.6231V19.3437C76.6231 18.6997 76.447 18.2395 76.0947 17.963C75.7425 17.6865 75.3277 17.5482 74.8504 17.5482C74.2368 17.5482 73.7614 17.7338 73.4243 18.105C73.0872 18.4724 72.9186 18.9384 72.9186 19.5028V25.1846H71.555V19.2073C71.555 18.7111 71.394 18.3115 71.072 18.0084C70.75 17.7016 70.3353 17.5482 69.8277 17.5482C69.4792 17.5482 69.1534 17.641 68.8504 17.8266C68.5512 18.0122 68.3087 18.2698 68.1231 18.5993C67.9413 18.9251 67.8504 19.302 67.8504 19.73V25.1846H66.5095ZM80.4157 28.4573V16.4573H81.7112V17.8437H81.8703C81.9688 17.6921 82.1051 17.499 82.2794 17.2641C82.4574 17.0255 82.7112 16.8134 83.0407 16.6278C83.3741 16.4384 83.8248 16.3437 84.393 16.3437C85.1279 16.3437 85.7756 16.5274 86.3362 16.8948C86.8968 17.2622 87.3343 17.7831 87.6487 18.4573C87.9631 19.1315 88.1203 19.927 88.1203 20.8437C88.1203 21.7679 87.9631 22.569 87.6487 23.2471C87.3343 23.9213 86.8987 24.444 86.3419 24.8153C85.7851 25.1827 85.143 25.3664 84.4157 25.3664C83.8551 25.3664 83.4063 25.2736 83.0692 25.088C82.732 24.8986 82.4726 24.6846 82.2907 24.4459C82.1089 24.2035 81.9688 24.0028 81.8703 23.8437H81.7567V28.4573H80.4157ZM81.7339 20.8209C81.7339 21.48 81.8305 22.0615 82.0237 22.5653C82.2169 23.0653 82.4991 23.4573 82.8703 23.7414C83.2415 24.0217 83.6961 24.1618 84.2339 24.1618C84.7945 24.1618 85.2623 24.0141 85.6373 23.7187C86.0161 23.4194 86.3002 23.0179 86.4896 22.5141C86.6828 22.0065 86.7794 21.4421 86.7794 20.8209C86.7794 20.2073 86.6847 19.6543 86.4953 19.1618C86.3097 18.6656 86.0275 18.2736 85.6487 17.9857C85.2737 17.694 84.8021 17.5482 84.2339 17.5482C83.6885 17.5482 83.2301 17.6865 82.8589 17.963C82.4877 18.2357 82.2074 18.6183 82.018 19.1107C81.8286 19.5993 81.7339 20.1694 81.7339 20.8209ZM96.3476 18.4118L95.143 18.7528C95.0673 18.552 94.9555 18.3569 94.8078 18.1675C94.6639 17.9743 94.4669 17.8153 94.2169 17.6903C93.9669 17.5653 93.6468 17.5028 93.2567 17.5028C92.7226 17.5028 92.2775 17.6259 91.9214 17.8721C91.5692 18.1145 91.393 18.4232 91.393 18.7982C91.393 19.1315 91.5142 19.3948 91.7567 19.588C91.9991 19.7812 92.3779 19.9421 92.893 20.0709L94.1885 20.3891C94.9688 20.5785 95.5502 20.8683 95.9328 21.2584C96.3154 21.6448 96.5067 22.1429 96.5067 22.7528C96.5067 23.2528 96.3627 23.6997 96.0748 24.0937C95.7907 24.4876 95.393 24.7982 94.8817 25.0255C94.3703 25.2528 93.7756 25.3664 93.0976 25.3664C92.2074 25.3664 91.4707 25.1732 90.8873 24.7868C90.304 24.4005 89.9347 23.8361 89.7794 23.0937L91.0521 22.7755C91.1733 23.2452 91.4025 23.5974 91.7396 23.8323C92.0805 24.0671 92.5256 24.1846 93.0748 24.1846C93.6998 24.1846 94.1961 24.052 94.5635 23.7868C94.9347 23.5179 95.1203 23.1959 95.1203 22.8209C95.1203 22.5179 95.0142 22.2641 94.8021 22.0596C94.59 21.8512 94.2642 21.6959 93.8248 21.5937L92.3703 21.2528C91.5711 21.0634 90.9839 20.7698 90.6089 20.3721C90.2377 19.9706 90.0521 19.4687 90.0521 18.8664C90.0521 18.374 90.1904 17.9384 90.4669 17.5596C90.7472 17.1808 91.1279 16.8834 91.6089 16.6675C92.0938 16.4516 92.643 16.3437 93.2567 16.3437C94.1203 16.3437 94.7983 16.5331 95.2907 16.9118C95.787 17.2906 96.1392 17.7906 96.3476 18.4118ZM102.071 25.3664C101.283 25.3664 100.591 25.1789 99.9967 24.8039C99.4058 24.4289 98.9437 23.9043 98.6104 23.23C98.2808 22.5558 98.116 21.7679 98.116 20.8664C98.116 19.9573 98.2808 19.1637 98.6104 18.4857C98.9437 17.8077 99.4058 17.2812 99.9967 16.9062C100.591 16.5312 101.283 16.3437 102.071 16.3437C102.858 16.3437 103.548 16.5312 104.139 16.9062C104.733 17.2812 105.196 17.8077 105.525 18.4857C105.858 19.1637 106.025 19.9573 106.025 20.8664C106.025 21.7679 105.858 22.5558 105.525 23.23C105.196 23.9043 104.733 24.4289 104.139 24.8039C103.548 25.1789 102.858 25.3664 102.071 25.3664ZM102.071 24.1618C102.669 24.1618 103.161 24.0084 103.548 23.7016C103.934 23.3948 104.22 22.9914 104.406 22.4914C104.591 21.9914 104.684 21.4497 104.684 20.8664C104.684 20.2831 104.591 19.7395 104.406 19.2357C104.22 18.7319 103.934 18.3247 103.548 18.0141C103.161 17.7035 102.669 17.5482 102.071 17.5482C101.472 17.5482 100.98 17.7035 100.593 18.0141C100.207 18.3247 99.921 18.7319 99.7354 19.2357C99.5497 19.7395 99.4569 20.2831 99.4569 20.8664C99.4569 21.4497 99.5497 21.9914 99.7354 22.4914C99.921 22.9914 100.207 23.3948 100.593 23.7016C100.98 24.0084 101.472 24.1618 102.071 24.1618ZM114.527 9.79821V28.9346H113.39V9.79821H114.527ZM125.852 25.3664C125.034 25.3664 124.329 25.1732 123.738 24.7868C123.147 24.4005 122.693 23.8683 122.375 23.1903C122.056 22.5122 121.897 21.7376 121.897 20.8664C121.897 19.98 122.06 19.1978 122.386 18.5198C122.715 17.838 123.174 17.3058 123.761 16.9232C124.352 16.5368 125.041 16.3437 125.829 16.3437C126.443 16.3437 126.996 16.4573 127.488 16.6846C127.981 16.9118 128.384 17.23 128.698 17.6391C129.013 18.0482 129.208 18.5255 129.284 19.0709H127.943C127.84 18.6732 127.613 18.3209 127.261 18.0141C126.912 17.7035 126.443 17.5482 125.852 17.5482C125.329 17.5482 124.871 17.6846 124.477 17.9573C124.087 18.2262 123.782 18.6069 123.562 19.0993C123.346 19.588 123.238 20.1618 123.238 20.8209C123.238 21.4952 123.344 22.0823 123.556 22.5823C123.772 23.0823 124.075 23.4706 124.465 23.7471C124.859 24.0236 125.322 24.1618 125.852 24.1618C126.2 24.1618 126.517 24.1012 126.801 23.98C127.085 23.8588 127.325 23.6846 127.522 23.4573C127.719 23.23 127.859 22.9573 127.943 22.6391H129.284C129.208 23.1543 129.02 23.6183 128.721 24.0312C128.426 24.4403 128.034 24.766 127.545 25.0084C127.06 25.2471 126.496 25.3664 125.852 25.3664ZM132.585 13.5482V25.1846H131.244V13.5482H132.585ZM137.609 25.3891C137.056 25.3891 136.554 25.2849 136.103 25.0766C135.652 24.8645 135.295 24.5596 135.029 24.1618C134.764 23.7603 134.632 23.2755 134.632 22.7073C134.632 22.2073 134.73 21.802 134.927 21.4914C135.124 21.177 135.387 20.9308 135.717 20.7528C136.046 20.5747 136.41 20.4421 136.808 20.355C137.209 20.2641 137.613 20.1921 138.018 20.1391C138.548 20.0709 138.978 20.0198 139.308 19.9857C139.641 19.9478 139.884 19.8853 140.035 19.7982C140.19 19.7111 140.268 19.5596 140.268 19.3437V19.2982C140.268 18.7376 140.115 18.302 139.808 17.9914C139.505 17.6808 139.045 17.5255 138.427 17.5255C137.787 17.5255 137.285 17.6656 136.921 17.9459C136.558 18.2262 136.302 18.5255 136.154 18.8437L134.882 18.3891C135.109 17.8588 135.412 17.4459 135.791 17.1505C136.173 16.8512 136.59 16.6429 137.041 16.5255C137.495 16.4043 137.942 16.3437 138.382 16.3437C138.662 16.3437 138.984 16.3778 139.348 16.4459C139.715 16.5103 140.069 16.6448 140.41 16.8493C140.755 17.0539 141.041 17.3626 141.268 17.7755C141.495 18.1884 141.609 18.7414 141.609 19.4346V25.1846H140.268V24.0028H140.2C140.109 24.1921 139.957 24.3948 139.745 24.6107C139.533 24.8266 139.251 25.0103 138.899 25.1618C138.546 25.3134 138.117 25.3891 137.609 25.3891ZM137.813 24.1846C138.344 24.1846 138.791 24.0804 139.154 23.8721C139.522 23.6637 139.798 23.3948 139.984 23.0653C140.173 22.7357 140.268 22.3891 140.268 22.0255V20.7982C140.211 20.8664 140.086 20.9289 139.893 20.9857C139.704 21.0387 139.484 21.0861 139.234 21.1278C138.988 21.1656 138.747 21.1997 138.512 21.23C138.281 21.2565 138.094 21.2793 137.95 21.2982C137.601 21.3437 137.276 21.4175 136.973 21.5198C136.673 21.6183 136.431 21.7679 136.245 21.9687C136.063 22.1656 135.973 22.4346 135.973 22.7755C135.973 23.2414 136.145 23.5937 136.49 23.8323C136.838 24.0671 137.279 24.1846 137.813 24.1846ZM150.238 18.4118L149.034 18.7528C148.958 18.552 148.846 18.3569 148.698 18.1675C148.554 17.9743 148.358 17.8153 148.108 17.6903C147.858 17.5653 147.537 17.5028 147.147 17.5028C146.613 17.5028 146.168 17.6259 145.812 17.8721C145.46 18.1145 145.284 18.4232 145.284 18.7982C145.284 19.1315 145.405 19.3948 145.647 19.588C145.89 19.7812 146.268 19.9421 146.784 20.0709L148.079 20.3891C148.859 20.5785 149.441 20.8683 149.823 21.2584C150.206 21.6448 150.397 22.1429 150.397 22.7528C150.397 23.2528 150.253 23.6997 149.965 24.0937C149.681 24.4876 149.284 24.7982 148.772 25.0255C148.261 25.2528 147.666 25.3664 146.988 25.3664C146.098 25.3664 145.361 25.1732 144.778 24.7868C144.195 24.4005 143.825 23.8361 143.67 23.0937L144.943 22.7755C145.064 23.2452 145.293 23.5974 145.63 23.8323C145.971 24.0671 146.416 24.1846 146.965 24.1846C147.59 24.1846 148.087 24.052 148.454 23.7868C148.825 23.5179 149.011 23.1959 149.011 22.8209C149.011 22.5179 148.905 22.2641 148.693 22.0596C148.481 21.8512 148.155 21.6959 147.715 21.5937L146.261 21.2528C145.462 21.0634 144.875 20.7698 144.5 20.3721C144.128 19.9706 143.943 19.4687 143.943 18.8664C143.943 18.374 144.081 17.9384 144.358 17.5596C144.638 17.1808 145.018 16.8834 145.5 16.6675C145.984 16.4516 146.534 16.3437 147.147 16.3437C148.011 16.3437 148.689 16.5331 149.181 16.9118C149.678 17.2906 150.03 17.7906 150.238 18.4118ZM158.598 18.4118L157.393 18.7528C157.317 18.552 157.206 18.3569 157.058 18.1675C156.914 17.9743 156.717 17.8153 156.467 17.6903C156.217 17.5653 155.897 17.5028 155.507 17.5028C154.973 17.5028 154.527 17.6259 154.171 17.8721C153.819 18.1145 153.643 18.4232 153.643 18.7982C153.643 19.1315 153.764 19.3948 154.007 19.588C154.249 19.7812 154.628 19.9421 155.143 20.0709L156.438 20.3891C157.219 20.5785 157.8 20.8683 158.183 21.2584C158.565 21.6448 158.757 22.1429 158.757 22.7528C158.757 23.2528 158.613 23.6997 158.325 24.0937C158.041 24.4876 157.643 24.7982 157.132 25.0255C156.62 25.2528 156.026 25.3664 155.348 25.3664C154.457 25.3664 153.721 25.1732 153.137 24.7868C152.554 24.4005 152.185 23.8361 152.029 23.0937L153.302 22.7755C153.423 23.2452 153.652 23.5974 153.99 23.8323C154.331 24.0671 154.776 24.1846 155.325 24.1846C155.95 24.1846 156.446 24.052 156.813 23.7868C157.185 23.5179 157.37 23.1959 157.37 22.8209C157.37 22.5179 157.264 22.2641 157.052 22.0596C156.84 21.8512 156.514 21.6959 156.075 21.5937L154.62 21.2528C153.821 21.0634 153.234 20.7698 152.859 20.3721C152.488 19.9706 152.302 19.4687 152.302 18.8664C152.302 18.374 152.44 17.9384 152.717 17.5596C152.997 17.1808 153.378 16.8834 153.859 16.6675C154.344 16.4516 154.893 16.3437 155.507 16.3437C156.37 16.3437 157.048 16.5331 157.541 16.9118C158.037 17.2906 158.389 17.7906 158.598 18.4118ZM160.775 25.1846V16.4573H162.116V25.1846H160.775ZM161.457 15.0028C161.196 15.0028 160.97 14.9137 160.781 14.7357C160.595 14.5577 160.502 14.3437 160.502 14.0937C160.502 13.8437 160.595 13.6296 160.781 13.4516C160.97 13.2736 161.196 13.1846 161.457 13.1846C161.718 13.1846 161.942 13.2736 162.127 13.4516C162.317 13.6296 162.411 13.8437 162.411 14.0937C162.411 14.3437 162.317 14.5577 162.127 14.7357C161.942 14.9137 161.718 15.0028 161.457 15.0028ZM168.117 25.3664C167.299 25.3664 166.595 25.1732 166.004 24.7868C165.413 24.4005 164.958 23.8683 164.64 23.1903C164.322 22.5122 164.163 21.7376 164.163 20.8664C164.163 19.98 164.326 19.1978 164.652 18.5198C164.981 17.838 165.439 17.3058 166.027 16.9232C166.617 16.5368 167.307 16.3437 168.095 16.3437C168.708 16.3437 169.261 16.4573 169.754 16.6846C170.246 16.9118 170.65 17.23 170.964 17.6391C171.278 18.0482 171.474 18.5255 171.549 19.0709H170.208C170.106 18.6732 169.879 18.3209 169.527 18.0141C169.178 17.7035 168.708 17.5482 168.117 17.5482C167.595 17.5482 167.136 17.6846 166.742 17.9573C166.352 18.2262 166.047 18.6069 165.828 19.0993C165.612 19.588 165.504 20.1618 165.504 20.8209C165.504 21.4952 165.61 22.0823 165.822 22.5823C166.038 23.0823 166.341 23.4706 166.731 23.7471C167.125 24.0236 167.587 24.1618 168.117 24.1618C168.466 24.1618 168.782 24.1012 169.066 23.98C169.35 23.8588 169.591 23.6846 169.788 23.4573C169.985 23.23 170.125 22.9573 170.208 22.6391H171.549C171.474 23.1543 171.286 23.6183 170.987 24.0312C170.691 24.4403 170.299 24.766 169.811 25.0084C169.326 25.2471 168.761 25.3664 168.117 25.3664ZM176.078 25.3891C175.525 25.3891 175.023 25.2849 174.572 25.0766C174.121 24.8645 173.763 24.5596 173.498 24.1618C173.233 23.7603 173.1 23.2755 173.1 22.7073C173.1 22.2073 173.199 21.802 173.396 21.4914C173.593 21.177 173.856 20.9308 174.186 20.7528C174.515 20.5747 174.879 20.4421 175.277 20.355C175.678 20.2641 176.081 20.1921 176.487 20.1391C177.017 20.0709 177.447 20.0198 177.777 19.9857C178.11 19.9478 178.352 19.8853 178.504 19.7982C178.659 19.7111 178.737 19.5596 178.737 19.3437V19.2982C178.737 18.7376 178.583 18.302 178.277 17.9914C177.974 17.6808 177.513 17.5255 176.896 17.5255C176.256 17.5255 175.754 17.6656 175.39 17.9459C175.027 18.2262 174.771 18.5255 174.623 18.8437L173.35 18.3891C173.578 17.8588 173.881 17.4459 174.259 17.1505C174.642 16.8512 175.059 16.6429 175.509 16.5255C175.964 16.4043 176.411 16.3437 176.85 16.3437C177.131 16.3437 177.453 16.3778 177.816 16.4459C178.184 16.5103 178.538 16.6448 178.879 16.8493C179.224 17.0539 179.509 17.3626 179.737 17.7755C179.964 18.1884 180.078 18.7414 180.078 19.4346V25.1846H178.737V24.0028H178.669C178.578 24.1921 178.426 24.3948 178.214 24.6107C178.002 24.8266 177.72 25.0103 177.367 25.1618C177.015 25.3134 176.585 25.3891 176.078 25.3891ZM176.282 24.1846C176.813 24.1846 177.259 24.0804 177.623 23.8721C177.991 23.6637 178.267 23.3948 178.453 23.0653C178.642 22.7357 178.737 22.3891 178.737 22.0255V20.7982C178.68 20.8664 178.555 20.9289 178.362 20.9857C178.172 21.0387 177.953 21.0861 177.703 21.1278C177.456 21.1656 177.216 21.1997 176.981 21.23C176.75 21.2565 176.563 21.2793 176.419 21.2982C176.07 21.3437 175.744 21.4175 175.441 21.5198C175.142 21.6183 174.9 21.7679 174.714 21.9687C174.532 22.1656 174.441 22.4346 174.441 22.7755C174.441 23.2414 174.614 23.5937 174.958 23.8323C175.307 24.0671 175.748 24.1846 176.282 24.1846ZM183.866 13.5482V25.1846H182.525V13.5482H183.866ZM190.822 25.1846V16.4573H192.117V17.8209H192.231C192.413 17.355 192.706 16.9933 193.112 16.7357C193.517 16.4743 194.004 16.3437 194.572 16.3437C195.148 16.3437 195.627 16.4743 196.009 16.7357C196.396 16.9933 196.697 17.355 196.913 17.8209H197.004C197.227 17.3702 197.563 17.0122 198.009 16.7471C198.456 16.4781 198.992 16.3437 199.617 16.3437C200.398 16.3437 201.036 16.588 201.532 17.0766C202.028 17.5615 202.277 18.3171 202.277 19.3437V25.1846H200.936V19.3437C200.936 18.6997 200.759 18.2395 200.407 17.963C200.055 17.6865 199.64 17.5482 199.163 17.5482C198.549 17.5482 198.074 17.7338 197.737 18.105C197.4 18.4724 197.231 18.9384 197.231 19.5028V25.1846H195.867V19.2073C195.867 18.7111 195.706 18.3115 195.384 18.0084C195.063 17.7016 194.648 17.5482 194.14 17.5482C193.792 17.5482 193.466 17.641 193.163 17.8266C192.864 18.0122 192.621 18.2698 192.436 18.5993C192.254 18.9251 192.163 19.302 192.163 19.73V25.1846H190.822ZM210.228 21.6164V16.4573H211.569V25.1846H210.228V23.7073H210.137C209.933 24.1505 209.615 24.5274 209.183 24.838C208.751 25.1448 208.206 25.2982 207.546 25.2982C207.001 25.2982 206.516 25.1789 206.092 24.9403C205.668 24.6978 205.334 24.3342 205.092 23.8493C204.849 23.3607 204.728 22.7452 204.728 22.0028V16.4573H206.069V21.9118C206.069 22.5482 206.247 23.0558 206.603 23.4346C206.963 23.8134 207.421 24.0028 207.978 24.0028C208.312 24.0028 208.651 23.9175 208.995 23.7471C209.344 23.5766 209.635 23.3153 209.87 22.963C210.109 22.6107 210.228 22.1618 210.228 21.6164ZM220.207 18.4118L219.002 18.7528C218.927 18.552 218.815 18.3569 218.667 18.1675C218.523 17.9743 218.326 17.8153 218.076 17.6903C217.826 17.5653 217.506 17.5028 217.116 17.5028C216.582 17.5028 216.137 17.6259 215.781 17.8721C215.429 18.1145 215.252 18.4232 215.252 18.7982C215.252 19.1315 215.374 19.3948 215.616 19.588C215.858 19.7812 216.237 19.9421 216.752 20.0709L218.048 20.3891C218.828 20.5785 219.41 20.8683 219.792 21.2584C220.175 21.6448 220.366 22.1429 220.366 22.7528C220.366 23.2528 220.222 23.6997 219.934 24.0937C219.65 24.4876 219.252 24.7982 218.741 25.0255C218.23 25.2528 217.635 25.3664 216.957 25.3664C216.067 25.3664 215.33 25.1732 214.747 24.7868C214.163 24.4005 213.794 23.8361 213.639 23.0937L214.911 22.7755C215.033 23.2452 215.262 23.5974 215.599 23.8323C215.94 24.0671 216.385 24.1846 216.934 24.1846C217.559 24.1846 218.055 24.052 218.423 23.7868C218.794 23.5179 218.98 23.1959 218.98 22.8209C218.98 22.5179 218.874 22.2641 218.661 22.0596C218.449 21.8512 218.124 21.6959 217.684 21.5937L216.23 21.2528C215.43 21.0634 214.843 20.7698 214.468 20.3721C214.097 19.9706 213.911 19.4687 213.911 18.8664C213.911 18.374 214.05 17.9384 214.326 17.5596C214.607 17.1808 214.987 16.8834 215.468 16.6675C215.953 16.4516 216.502 16.3437 217.116 16.3437C217.98 16.3437 218.658 16.5331 219.15 16.9118C219.646 17.2906 219.999 17.7906 220.207 18.4118ZM222.384 25.1846V16.4573H223.725V25.1846H222.384ZM223.066 15.0028C222.805 15.0028 222.58 14.9137 222.39 14.7357C222.205 14.5577 222.112 14.3437 222.112 14.0937C222.112 13.8437 222.205 13.6296 222.39 13.4516C222.58 13.2736 222.805 13.1846 223.066 13.1846C223.328 13.1846 223.551 13.2736 223.737 13.4516C223.926 13.6296 224.021 13.8437 224.021 14.0937C224.021 14.3437 223.926 14.5577 223.737 14.7357C223.551 14.9137 223.328 15.0028 223.066 15.0028ZM229.727 25.3664C228.909 25.3664 228.204 25.1732 227.613 24.7868C227.022 24.4005 226.568 23.8683 226.25 23.1903C225.931 22.5122 225.772 21.7376 225.772 20.8664C225.772 19.98 225.935 19.1978 226.261 18.5198C226.59 17.838 227.049 17.3058 227.636 16.9232C228.227 16.5368 228.916 16.3437 229.704 16.3437C230.318 16.3437 230.871 16.4573 231.363 16.6846C231.856 16.9118 232.259 17.23 232.573 17.6391C232.888 18.0482 233.083 18.5255 233.159 19.0709H231.818C231.715 18.6732 231.488 18.3209 231.136 18.0141C230.787 17.7035 230.318 17.5482 229.727 17.5482C229.204 17.5482 228.746 17.6846 228.352 17.9573C227.962 18.2262 227.657 18.6069 227.437 19.0993C227.221 19.588 227.113 20.1618 227.113 20.8209C227.113 21.4952 227.219 22.0823 227.431 22.5823C227.647 23.0823 227.95 23.4706 228.34 23.7471C228.734 24.0236 229.197 24.1618 229.727 24.1618C230.075 24.1618 230.392 24.1012 230.676 23.98C230.96 23.8588 231.2 23.6846 231.397 23.4573C231.594 23.23 231.734 22.9573 231.818 22.6391H233.159C233.083 23.1543 232.895 23.6183 232.596 24.0312C232.301 24.4403 231.909 24.766 231.42 25.0084C230.935 25.2471 230.371 25.3664 229.727 25.3664ZM243.505 16.4573V17.5937H238.801V16.4573H243.505ZM240.21 25.1846V15.2528C240.21 14.7528 240.327 14.3361 240.562 14.0028C240.797 13.6694 241.102 13.4194 241.477 13.2528C241.852 13.0861 242.248 13.0028 242.664 13.0028C242.994 13.0028 243.263 13.0293 243.471 13.0823C243.679 13.1353 243.835 13.1846 243.937 13.23L243.551 14.3891C243.483 14.3664 243.388 14.338 243.267 14.3039C243.149 14.2698 242.994 14.2528 242.801 14.2528C242.358 14.2528 242.037 14.3645 241.84 14.588C241.647 14.8115 241.551 15.1391 241.551 15.5709V25.1846H240.21ZM248.571 25.3664C247.783 25.3664 247.091 25.1789 246.497 24.8039C245.906 24.4289 245.444 23.9043 245.11 23.23C244.781 22.5558 244.616 21.7679 244.616 20.8664C244.616 19.9573 244.781 19.1637 245.11 18.4857C245.444 17.8077 245.906 17.2812 246.497 16.9062C247.091 16.5312 247.783 16.3437 248.571 16.3437C249.358 16.3437 250.048 16.5312 250.639 16.9062C251.233 17.2812 251.696 17.8077 252.025 18.4857C252.358 19.1637 252.525 19.9573 252.525 20.8664C252.525 21.7679 252.358 22.5558 252.025 23.23C251.696 23.9043 251.233 24.4289 250.639 24.8039C250.048 25.1789 249.358 25.3664 248.571 25.3664ZM248.571 24.1618C249.169 24.1618 249.661 24.0084 250.048 23.7016C250.434 23.3948 250.72 22.9914 250.906 22.4914C251.091 21.9914 251.184 21.4497 251.184 20.8664C251.184 20.2831 251.091 19.7395 250.906 19.2357C250.72 18.7319 250.434 18.3247 250.048 18.0141C249.661 17.7035 249.169 17.5482 248.571 17.5482C247.972 17.5482 247.48 17.7035 247.093 18.0141C246.707 18.3247 246.421 18.7319 246.235 19.2357C246.05 19.7395 245.957 20.2831 245.957 20.8664C245.957 21.4497 246.05 21.9914 246.235 22.4914C246.421 22.9914 246.707 23.3948 247.093 23.7016C247.48 24.0084 247.972 24.1618 248.571 24.1618ZM254.572 25.1846V16.4573H255.867V17.7755H255.958C256.117 17.3437 256.405 16.9933 256.822 16.7243C257.239 16.4554 257.708 16.3209 258.231 16.3209C258.33 16.3209 258.453 16.3228 258.6 16.3266C258.748 16.3304 258.86 16.3361 258.936 16.3437V17.7073C258.89 17.6959 258.786 17.6789 258.623 17.6562C258.464 17.6296 258.295 17.6164 258.117 17.6164C257.693 17.6164 257.314 17.7054 256.981 17.8834C256.652 18.0577 256.39 18.3001 256.197 18.6107C256.008 18.9175 255.913 19.2679 255.913 19.6618V25.1846H254.572ZM267.593 25.3891C267.04 25.3891 266.538 25.2849 266.088 25.0766C265.637 24.8645 265.279 24.5596 265.014 24.1618C264.749 23.7603 264.616 23.2755 264.616 22.7073C264.616 22.2073 264.715 21.802 264.911 21.4914C265.108 21.177 265.372 20.9308 265.701 20.7528C266.031 20.5747 266.394 20.4421 266.792 20.355C267.194 20.2641 267.597 20.1921 268.002 20.1391C268.533 20.0709 268.963 20.0198 269.292 19.9857C269.626 19.9478 269.868 19.8853 270.019 19.7982C270.175 19.7111 270.252 19.5596 270.252 19.3437V19.2982C270.252 18.7376 270.099 18.302 269.792 17.9914C269.489 17.6808 269.029 17.5255 268.411 17.5255C267.771 17.5255 267.269 17.6656 266.906 17.9459C266.542 18.2262 266.286 18.5255 266.139 18.8437L264.866 18.3891C265.093 17.8588 265.396 17.4459 265.775 17.1505C266.158 16.8512 266.574 16.6429 267.025 16.5255C267.48 16.4043 267.927 16.3437 268.366 16.3437C268.646 16.3437 268.968 16.3778 269.332 16.4459C269.699 16.5103 270.054 16.6448 270.394 16.8493C270.739 17.0539 271.025 17.3626 271.252 17.7755C271.48 18.1884 271.593 18.7414 271.593 19.4346V25.1846H270.252V24.0028H270.184C270.093 24.1921 269.942 24.3948 269.73 24.6107C269.518 24.8266 269.235 25.0103 268.883 25.1618C268.531 25.3134 268.101 25.3891 267.593 25.3891ZM267.798 24.1846C268.328 24.1846 268.775 24.0804 269.139 23.8721C269.506 23.6637 269.783 23.3948 269.968 23.0653C270.158 22.7357 270.252 22.3891 270.252 22.0255V20.7982C270.196 20.8664 270.071 20.9289 269.877 20.9857C269.688 21.0387 269.468 21.0861 269.218 21.1278C268.972 21.1656 268.732 21.1997 268.497 21.23C268.266 21.2565 268.078 21.2793 267.934 21.2982C267.586 21.3437 267.26 21.4175 266.957 21.5198C266.658 21.6183 266.415 21.7679 266.23 21.9687C266.048 22.1656 265.957 22.4346 265.957 22.7755C265.957 23.2414 266.129 23.5937 266.474 23.8323C266.822 24.0671 267.264 24.1846 267.798 24.1846ZM275.382 13.5482V25.1846H274.041V13.5482H275.382ZM279.179 13.5482V25.1846H277.838V13.5482H279.179Z" fill="white"/>
</g>
<defs>
<linearGradient id="paint0_linear_734_10991" x1="0.641113" y1="38.7083" x2="49.3783" y2="-9.11304" gradientUnits="userSpaceOnUse">
<stop stop-color="#86D3F6"/>
<stop offset="1" stop-color="#EF83B7"/>
</linearGradient>
<linearGradient id="paint1_linear_734_10991" x1="16.2212" y1="30.4097" x2="31.8449" y2="25.521" gradientUnits="userSpaceOnUse">
<stop stop-color="#86D3F6"/>
<stop offset="1" stop-color="#EF83B7"/>
</linearGradient>
<clipPath id="clip0_734_10991">
<rect width="281" height="39" fill="white"/>
</clipPath>
</defs>
</svg>
