<svg width="48" height="48" viewBox="0 0 48 48" fill="none" xmlns="http://www.w3.org/2000/svg">
<path fill-rule="evenodd" clip-rule="evenodd" d="M24.0001 35.9999L15.8313 40.2945C14.8536 40.8085 13.6444 40.4326 13.1304 39.4549C12.9257 39.0656 12.8551 38.6196 12.9294 38.1861L14.4895 29.0901L7.88083 22.6482C7.08987 21.8772 7.07368 20.611 7.84468 19.82C8.1517 19.505 8.55399 19.3001 8.98926 19.2368L18.1222 17.9097L22.2066 9.63387C22.6954 8.64336 23.8947 8.23668 24.8852 8.72553C25.2796 8.92019 25.5989 9.23944 25.7935 9.63387L29.8779 17.9097L39.0109 19.2368C40.104 19.3957 40.8613 20.4105 40.7025 21.5036C40.6392 21.9389 40.4343 22.3412 40.1193 22.6482L33.5106 29.0901L35.0707 38.1861C35.2574 39.2748 34.5263 40.3087 33.4376 40.4954C33.0041 40.5698 32.5581 40.4991 32.1688 40.2945L24.0001 35.9999Z" fill="#FFDC22"/>
</svg>
